<svg id="visual" viewBox="0 0 900 600" width="900" height="600" xmlns="http://www.w3.org/2000/svg" xmlns:xlink="http://www.w3.org/1999/xlink" version="1.1"><rect x="0" y="0" width="900" height="600" fill="#1A1A2E"></rect><path d="M0 280L18.8 285C37.7 290 75.3 300 112.8 298C150.3 296 187.7 282 225.2 271C262.7 260 300.3 252 337.8 262.2C375.3 272.3 412.7 300.7 450.2 316.7C487.7 332.7 525.3 336.3 562.8 327C600.3 317.7 637.7 295.3 675.2 292.3C712.7 289.3 750.3 305.7 787.8 312.5C825.3 319.3 862.7 316.7 881.3 315.3L900 314L900 0L881.3 0C862.7 0 825.3 0 787.8 0C750.3 0 712.7 0 675.2 0C637.7 0 600.3 0 562.8 0C525.3 0 487.7 0 450.2 0C412.7 0 375.3 0 337.8 0C300.3 0 262.7 0 225.2 0C187.7 0 150.3 0 112.8 0C75.3 0 37.7 0 18.8 0L0 0Z" fill="#16213E" stroke-linecap="round" stroke-linejoin="miter"></path></svg>