<svg id="visual" viewBox="0 0 900 600" width="900" height="600" xmlns="http://www.w3.org/2000/svg" xmlns:xlink="http://www.w3.org/1999/xlink" version="1.1"><rect x="0" y="0" width="900" height="600" fill="#16213E"></rect><path d="M0 437L16.7 442.5C33.3 448 66.7 459 100 474C133.3 489 166.7 508 200 504.7C233.3 501.3 266.7 475.7 300 459.2C333.3 442.7 366.7 435.3 400 439.8C433.3 444.3 466.7 460.7 500 469.3C533.3 478 566.7 479 600 474.3C633.3 469.7 666.7 459.3 700 451C733.3 442.7 766.7 436.3 800 436.2C833.3 436 866.7 442 883.3 445L900 448L900 601L883.3 601C866.7 601 833.3 601 800 601C766.7 601 733.3 601 700 601C666.7 601 633.3 601 600 601C566.7 601 533.3 601 500 601C466.7 601 433.3 601 400 601C366.7 601 333.3 601 300 601C266.7 601 233.3 601 200 601C166.7 601 133.3 601 100 601C66.7 601 33.3 601 16.7 601L0 601Z" fill="#033d6c" stroke-linecap="round" stroke-linejoin="miter"></path></svg>